#Comment line ignore any data following # character 
#Hierarchical Translation and Rotation (.htr) file 
[Header]	
#Header keywords are followed by a single value 
FileType HTR		#Single word string
DataType HTRS		#Translation followed by rotation and scale data
FileVersion 1		#integer
NumSegments 84		#integer
NumFrames 2		#integer
DataFrameRate 30		#integer, data frame rate in this file
EulerRotationOrder ZYX
CalibrationUnits mm
RotationUnits Degrees
GlobalAxisofGravity Y
BoneLengthAxis Y
ScaleFactor 1.00
[SegmentNames&Hierarchy]
#CHILD	PARENT
MASTER GLOBAL
root MASTER
chest root
L_mid_tent01 root
R_mid_tent01 root
spine01 root
Bip01_Neck chest
L_humerus chest
R_humerus chest
weapon_bone chest
Bip01_Head Bip01_Neck
eye_left_bone Bip01_Head
eye_right_bone Bip01_Head
L_forearm L_humerus
L_front_hand L_forearm
L_weapon_bone L_forearm
L_front_hand01_01 L_front_hand
L_front_hand02_01 L_front_hand
L_front_hand03_01 L_front_hand
L_front_hand01_02 L_front_hand01_01
L_front_hand02_02 L_front_hand02_01
L_front_hand03_02 L_front_hand03_01
R_forearm R_humerus
R_front_hand R_forearm
R_weapon_bone R_forearm
R_front_hand01_01 R_front_hand
R_front_hand02_01 R_front_hand
R_front_hand03_01 R_front_hand
R_front_hand01_02 R_front_hand01_01
R_front_hand02_02 R_front_hand02_01
R_front_hand03_02 R_front_hand03_01
null_rope01_connect L_mid_tent01
Rope1_Seg01 null_rope01_connect
Rope1_Seg02 Rope1_Seg01
Rope1_Seg03 Rope1_Seg02
Rope1_Seg04 Rope1_Seg03
Rope1_Seg05 Rope1_Seg04
Rope1_Seg06 Rope1_Seg05
Rope1_Seg07 Rope1_Seg06
Rope1_Seg09 Rope1_Seg07
L_mid_hand01 Rope1_Seg09
L_mid_hand02 Rope1_Seg09
L_mid_hand03 Rope1_Seg09
null_rope02_connect R_mid_tent01
Rope2_Seg01 null_rope02_connect
Rope2_Seg02 Rope2_Seg01
Rope2_Seg03 Rope2_Seg02
Rope2_Seg04 Rope2_Seg03
Rope2_Seg05 Rope2_Seg04
Rope2_Seg06 Rope2_Seg05
Rope2_Seg07 Rope2_Seg06
Rope2_Seg09 Rope2_Seg07
R_mid_hand01 Rope2_Seg09
R_mid_hand02 Rope2_Seg09
R_mid_hand03 Rope2_Seg09
spine02 spine01
spine03 spine02
pelvis spine03
null_rope03_connect pelvis
null_rope04_connect pelvis
Rope3_Seg01 null_rope03_connect
Rope3_Seg02 Rope3_Seg01
Rope3_Seg03 Rope3_Seg02
Rope3_Seg04 Rope3_Seg03
Rope3_Seg05 Rope3_Seg04
Rope3_Seg06 Rope3_Seg05
Rope3_Seg07 Rope3_Seg06
Rope3_Seg08 Rope3_Seg07
Rope3_Seg09 Rope3_Seg08
R_rear_hand01 Rope3_Seg09
R_rear_hand02 Rope3_Seg09
R_rear_hand03 Rope3_Seg09
Rope4_Seg01 null_rope04_connect
Rope4_Seg02 Rope4_Seg01
Rope4_Seg03 Rope4_Seg02
Rope4_Seg04 Rope4_Seg03
Rope4_Seg05 Rope4_Seg04
Rope4_Seg06 Rope4_Seg05
Rope4_Seg07 Rope4_Seg06
Rope4_Seg08 Rope4_Seg07
Rope4_Seg09 Rope4_Seg08
L_rear_hand01 Rope4_Seg09
L_rear_hand02 Rope4_Seg09
L_rear_hand03 Rope4_Seg09
[BasePosition]
#SegmentName Tx, Ty, Tz, Rx, Ry, Rz, BoneLength
MASTER 0.000000 0.000000 0.000000 -90.000000 0.000000 0.000000 10.000000 
root 0.000000 0.000000 0.000000 0.000000 0.000000 0.000000 10.000000 
chest 0.000000 0.000000 0.000000 0.000000 0.000000 0.000000 10.000000 
L_mid_tent01 0.000000 0.000000 0.000000 0.000000 0.000000 0.000000 10.000000 
R_mid_tent01 0.000000 0.000000 0.000000 0.000000 0.000000 0.000000 10.000000 
spine01 0.000000 0.000000 0.000000 0.000000 0.000000 0.000000 10.000000 
Bip01_Neck 0.000000 0.000000 0.000000 0.000000 0.000000 0.000000 10.000000 
L_humerus 0.000000 0.000000 0.000000 0.000000 0.000000 0.000000 10.000000 
R_humerus 0.000000 0.000000 0.000000 0.000000 0.000000 0.000000 10.000000 
weapon_bone 0.000000 0.000000 0.000000 0.000000 0.000000 0.000000 10.000000 
Bip01_Head 0.000000 0.000000 0.000000 0.000000 0.000000 0.000000 10.000000 
eye_left_bone 0.000000 0.000000 0.000000 0.000000 0.000000 0.000000 10.000000 
eye_right_bone 0.000000 0.000000 0.000000 0.000000 0.000000 0.000000 10.000000 
L_forearm 0.000000 0.000000 0.000000 0.000000 0.000000 0.000000 10.000000 
L_front_hand 0.000000 0.000000 0.000000 0.000000 0.000000 0.000000 10.000000 
L_weapon_bone 0.000000 0.000000 0.000000 0.000000 0.000000 0.000000 10.000000 
L_front_hand01_01 0.000000 0.000000 0.000000 0.000000 0.000000 0.000000 10.000000 
L_front_hand02_01 0.000000 0.000000 0.000000 0.000000 0.000000 0.000000 10.000000 
L_front_hand03_01 0.000000 0.000000 0.000000 0.000000 0.000000 0.000000 10.000000 
L_front_hand01_02 0.000000 0.000000 0.000000 0.000000 0.000000 0.000000 10.000000 
L_front_hand02_02 0.000000 0.000000 0.000000 0.000000 0.000000 0.000000 10.000000 
L_front_hand03_02 0.000000 0.000000 0.000000 0.000000 0.000000 0.000000 10.000000 
R_forearm 0.000000 0.000000 0.000000 0.000000 0.000000 0.000000 10.000000 
R_front_hand 0.000000 0.000000 0.000000 0.000000 0.000000 0.000000 10.000000 
R_weapon_bone 0.000000 0.000000 0.000000 0.000000 0.000000 0.000000 10.000000 
R_front_hand01_01 0.000000 0.000000 0.000000 0.000000 0.000000 0.000000 10.000000 
R_front_hand02_01 0.000000 0.000000 0.000000 0.000000 0.000000 0.000000 10.000000 
R_front_hand03_01 0.000000 0.000000 0.000000 0.000000 0.000000 0.000000 10.000000 
R_front_hand01_02 0.000000 0.000000 0.000000 0.000000 0.000000 0.000000 10.000000 
R_front_hand02_02 0.000000 0.000000 0.000000 0.000000 0.000000 0.000000 10.000000 
R_front_hand03_02 0.000000 0.000000 0.000000 0.000000 0.000000 0.000000 10.000000 
null_rope01_connect 0.000000 0.000000 0.000000 0.000000 0.000000 0.000000 10.000000 
Rope1_Seg01 0.000000 0.000000 0.000000 0.000000 0.000000 0.000000 10.000000 
Rope1_Seg02 0.000000 0.000000 0.000000 0.000000 0.000000 0.000000 10.000000 
Rope1_Seg03 0.000000 0.000000 0.000000 0.000000 0.000000 0.000000 10.000000 
Rope1_Seg04 0.000000 0.000000 0.000000 0.000000 0.000000 0.000000 10.000000 
Rope1_Seg05 0.000000 0.000000 0.000000 0.000000 0.000000 0.000000 10.000000 
Rope1_Seg06 0.000000 0.000000 0.000000 0.000000 0.000000 0.000000 10.000000 
Rope1_Seg07 0.000000 0.000000 0.000000 0.000000 0.000000 0.000000 10.000000 
Rope1_Seg09 0.000000 0.000000 0.000000 0.000000 0.000000 0.000000 10.000000 
L_mid_hand01 0.000000 0.000000 0.000000 0.000000 0.000000 0.000000 10.000000 
L_mid_hand02 0.000000 0.000000 0.000000 0.000000 0.000000 0.000000 10.000000 
L_mid_hand03 0.000000 0.000000 0.000000 0.000000 0.000000 0.000000 10.000000 
null_rope02_connect 0.000000 0.000000 0.000000 0.000000 0.000000 0.000000 10.000000 
Rope2_Seg01 0.000000 0.000000 0.000000 0.000000 0.000000 0.000000 10.000000 
Rope2_Seg02 0.000000 0.000000 0.000000 0.000000 0.000000 0.000000 10.000000 
Rope2_Seg03 0.000000 0.000000 0.000000 0.000000 0.000000 0.000000 10.000000 
Rope2_Seg04 0.000000 0.000000 0.000000 0.000000 0.000000 0.000000 10.000000 
Rope2_Seg05 0.000000 0.000000 0.000000 0.000000 0.000000 0.000000 10.000000 
Rope2_Seg06 0.000000 0.000000 0.000000 0.000000 0.000000 0.000000 10.000000 
Rope2_Seg07 0.000000 0.000000 0.000000 0.000000 0.000000 0.000000 10.000000 
Rope2_Seg09 0.000000 0.000000 0.000000 0.000000 0.000000 0.000000 10.000000 
R_mid_hand01 0.000000 0.000000 0.000000 0.000000 0.000000 0.000000 10.000000 
R_mid_hand02 0.000000 0.000000 0.000000 0.000000 0.000000 0.000000 10.000000 
R_mid_hand03 0.000000 0.000000 0.000000 0.000000 0.000000 0.000000 10.000000 
spine02 0.000000 0.000000 0.000000 0.000000 0.000000 0.000000 10.000000 
spine03 0.000000 0.000000 0.000000 0.000000 0.000000 0.000000 10.000000 
pelvis 0.000000 0.000000 0.000000 0.000000 0.000000 0.000000 10.000000 
null_rope03_connect 0.000000 0.000000 0.000000 0.000000 0.000000 0.000000 10.000000 
null_rope04_connect 0.000000 0.000000 0.000000 0.000000 0.000000 0.000000 10.000000 
Rope3_Seg01 0.000000 0.000000 0.000000 0.000000 0.000000 0.000000 10.000000 
Rope3_Seg02 0.000000 0.000000 0.000000 0.000000 0.000000 0.000000 10.000000 
Rope3_Seg03 0.000000 0.000000 0.000000 0.000000 0.000000 0.000000 10.000000 
Rope3_Seg04 0.000000 0.000000 0.000000 0.000000 0.000000 0.000000 10.000000 
Rope3_Seg05 0.000000 0.000000 0.000000 0.000000 0.000000 0.000000 10.000000 
Rope3_Seg06 0.000000 0.000000 0.000000 0.000000 0.000000 0.000000 10.000000 
Rope3_Seg07 0.000000 0.000000 0.000000 0.000000 0.000000 0.000000 10.000000 
Rope3_Seg08 0.000000 0.000000 0.000000 0.000000 0.000000 0.000000 10.000000 
Rope3_Seg09 0.000000 0.000000 0.000000 0.000000 0.000000 0.000000 10.000000 
R_rear_hand01 0.000000 0.000000 0.000000 0.000000 0.000000 0.000000 10.000000 
R_rear_hand02 0.000000 0.000000 0.000000 0.000000 0.000000 0.000000 10.000000 
R_rear_hand03 0.000000 0.000000 0.000000 0.000000 0.000000 0.000000 10.000000 
Rope4_Seg01 0.000000 0.000000 0.000000 0.000000 0.000000 0.000000 10.000000 
Rope4_Seg02 0.000000 0.000000 0.000000 0.000000 0.000000 0.000000 10.000000 
Rope4_Seg03 0.000000 0.000000 0.000000 0.000000 0.000000 0.000000 10.000000 
Rope4_Seg04 0.000000 0.000000 0.000000 0.000000 0.000000 0.000000 10.000000 
Rope4_Seg05 0.000000 0.000000 0.000000 0.000000 0.000000 0.000000 10.000000 
Rope4_Seg06 0.000000 0.000000 0.000000 0.000000 0.000000 0.000000 10.000000 
Rope4_Seg07 0.000000 0.000000 0.000000 0.000000 0.000000 0.000000 10.000000 
Rope4_Seg08 0.000000 0.000000 0.000000 0.000000 0.000000 0.000000 10.000000 
Rope4_Seg09 0.000000 0.000000 0.000000 0.000000 0.000000 0.000000 10.000000 
L_rear_hand01 0.000000 0.000000 0.000000 0.000000 0.000000 0.000000 10.000000 
L_rear_hand02 0.000000 0.000000 0.000000 0.000000 0.000000 0.000000 10.000000 
L_rear_hand03 0.000000 0.000000 0.000000 0.000000 0.000000 0.000000 10.000000 
#Beginning of Data. Separated by tabs
#Fr	Tx	Ty	Tz	Rx	Ry	Rz	SF
[MASTER]
29 0.000000 0.000000 0.000000 0.001660 0.001660 0.001660 0.000000
30 0.000000 0.000000 0.000000 0.001660 0.001660 0.001660 0.000000
[root]
29 4.596714 133.869781 1463.520264 -81.139839 -11.688135 -100.082367 1469.637329
30 -0.157337 100.585579 1457.037231 -83.674385 -11.640279 -95.793228 1460.505005
[chest]
29 -84.512650 -34.090519 0.000000 -2.692127 0.407937 174.460709 91.129311
30 -84.512650 -34.090519 0.000000 -2.548411 0.424253 172.637634 91.129311
[L_mid_tent01]
29 27.299065 22.179277 -249.918686 21.537848 37.537376 45.660950 252.381683
30 27.299063 22.179274 -249.918686 8.167720 30.925386 32.631058 252.381683
[R_mid_tent01]
29 23.228794 24.509907 226.238495 -150.138672 -4.365062 22.311079 228.744751
30 23.228794 24.509907 226.238495 -154.052689 -5.962083 21.571657 228.744751
[spine01]
29 -0.361383 -0.195265 0.000000 0.001941 0.001320 21.563311 0.410763
30 -0.361383 -0.195265 0.000000 0.001942 0.001318 21.663994 0.410763
[Bip01_Neck]
29 165.484543 71.581718 0.000119 175.896118 1.177290 24.871183 180.302734
30 165.484543 71.581718 0.000119 175.896118 1.177290 24.871183 180.302734
[L_humerus]
29 -13.983130 -135.272980 -120.471481 -48.381943 65.588608 43.180969 181.680161
30 -13.983130 -135.272980 -120.471481 -32.384335 68.216324 58.021263 181.680161
[R_humerus]
29 -13.983309 -135.273102 125.287651 106.608475 -68.520920 -2.462999 184.909012
30 -13.983309 -135.273102 125.287651 79.554108 -74.236946 21.229288 184.909012
[weapon_bone]
29 235.964890 -300.705902 0.000000 0.000000 -89.951546 -128.212341 382.234833
30 235.964890 -300.705902 0.000000 0.000000 -89.951546 -128.212341 382.234833
[Bip01_Head]
29 228.884064 130.986115 6.719439 10.928976 5.187324 -67.258469 263.799988
30 223.649963 136.630569 7.376177 7.723783 4.069129 -66.430000 262.186249
[eye_left_bone]
29 28.083797 156.595871 -74.932487 -104.218590 -85.597984 4.718000 175.857452
30 27.612303 156.317261 -74.841606 -104.218590 -85.597984 4.718000 175.495834
[eye_right_bone]
29 38.356808 157.452164 53.768024 75.788536 -85.594551 4.713911 170.743759
30 37.787380 157.162827 53.863491 75.788536 -85.594551 4.713911 170.379913
[L_forearm]
29 322.776093 0.000000 -0.000119 0.000060 -0.002346 -92.908020 322.776093
30 322.776093 0.000000 -0.000119 0.000196 -0.002339 -99.558502 322.776093
[L_front_hand]
29 241.149185 -0.042021 -3.300071 39.578903 3.347551 -5.332741 241.171753
30 241.149185 -0.042021 -3.300071 39.578915 3.347552 -5.332743 241.171753
[L_weapon_bone]
29 156.183838 0.000000 0.000000 0.001513 0.001794 -9.718352 156.183838
30 156.183838 0.000000 0.000000 0.001575 0.001740 -5.703058 156.183838
[L_front_hand01_01]
29 86.095154 20.947098 -0.655860 -0.288967 -0.524182 66.581490 88.609184
30 86.095154 20.947098 -0.655860 -0.288967 -0.524182 66.581490 88.609184
[L_front_hand02_01]
29 86.935165 -11.437475 24.513514 142.546371 -55.255390 -47.355206 91.046425
30 86.935165 -11.437475 24.513514 142.546371 -55.255390 -47.355206 91.046425
[L_front_hand03_01]
29 86.637497 -14.123976 -20.424902 -142.852753 53.473362 -49.356201 90.126129
30 86.637497 -14.123976 -20.424902 -142.852753 53.473362 -49.356201 90.126129
[L_front_hand01_02]
29 71.020905 -0.000179 0.000030 0.001468 0.001832 -12.590687 71.020905
30 71.020905 -0.000179 0.000030 0.001284 0.001965 -23.693483 71.020905
[L_front_hand02_02]
29 71.020927 -0.000119 0.000060 0.001468 0.001832 -12.590687 71.020927
30 71.020927 -0.000119 0.000060 0.001284 0.001965 -23.693483 71.020927
[L_front_hand03_02]
29 71.020905 -0.000060 0.000060 0.001468 0.001832 -12.590687 71.020905
30 71.020905 -0.000060 0.000060 0.001284 0.001965 -23.693483 71.020905
[R_forearm]
29 322.776428 -0.000060 0.000030 0.208275 -0.054556 -76.193649 322.776428
30 322.776428 -0.000060 0.000030 0.213147 -0.011961 -87.948212 322.776428
[R_front_hand]
29 238.847015 -0.006795 2.210259 -2.635298 -10.645461 -26.312506 238.857239
30 238.847015 -0.006795 2.210259 -2.635298 -10.645461 -26.312506 238.857239
[R_weapon_bone]
29 155.664093 0.002503 -0.000030 0.003487 0.001180 -90.988930 155.664078
30 155.664093 0.002503 -0.000030 0.003487 0.001180 -90.988930 155.664078
[R_front_hand01_01]
29 87.624611 14.231146 22.918642 -154.633499 -59.950619 61.746044 91.683487
30 87.624611 14.231146 22.918642 -154.633499 -59.950619 61.746044 91.683487
[R_front_hand02_01]
29 89.356956 14.367283 -19.491137 154.602661 58.302849 63.744381 92.579636
30 89.356956 14.367283 -19.491137 154.602661 58.302849 63.744389 92.579636
[R_front_hand03_01]
29 87.286232 -22.307278 -0.143439 0.162155 -0.423168 -75.767906 90.091743
30 87.286232 -22.307278 -0.143439 0.162155 -0.423168 -75.767921 90.091743
[R_front_hand01_02]
29 71.020905 0.000060 0.000119 0.002323 -0.000334 106.381714 71.020905
30 71.020905 0.000060 0.000119 0.002323 -0.000334 106.381714 71.020905
[R_front_hand02_02]
29 71.020844 -0.000030 -0.000119 0.002323 -0.000334 106.381714 71.020836
30 71.020844 -0.000030 -0.000119 0.002323 -0.000334 106.381714 71.020836
[R_front_hand03_02]
29 71.020905 0.000000 0.000030 0.002323 -0.000334 106.381714 71.020905
30 71.020905 0.000000 0.000030 0.002323 -0.000334 106.381714 71.020905
[null_rope01_connect]
29 328.732483 0.000000 -0.000238 -82.569260 -38.754837 143.254807 328.732483
30 328.732483 0.000000 -0.000238 -85.839951 -53.658310 155.525909 328.732483
[Rope1_Seg01]
29 -0.000021 0.000005 0.000019 140.968536 27.351851 -143.146042 0.000029
30 -0.000021 0.000004 0.000014 107.645081 19.102451 -130.607269 0.000026
[Rope1_Seg02]
29 139.999863 -0.000179 0.000000 -30.800762 8.869292 23.453487 139.999863
30 139.999863 -0.000179 0.000000 -37.358257 6.192744 14.266191 139.999863
[Rope1_Seg03]
29 139.999924 0.000060 -0.000060 64.091881 -8.809600 -40.917183 139.999924
30 139.999924 0.000060 -0.000060 -4.747211 1.612911 1.132863 139.999924
[Rope1_Seg04]
29 139.999924 -0.000060 -0.000119 6.397027 -5.065373 -1.461739 139.999924
30 139.999924 -0.000060 -0.000119 60.718361 8.476348 -18.468107 139.999924
[Rope1_Seg05]
29 139.999832 0.000119 -0.000060 0.729491 -0.655437 -0.111332 139.999832
30 139.999832 0.000119 -0.000060 43.335377 -2.982837 -4.122266 139.999832
[Rope1_Seg06]
29 139.999954 0.000119 -0.000060 -0.003241 0.001652 0.001659 139.999954
30 139.999954 0.000119 -0.000060 11.507708 -1.929867 -0.366812 139.999954
[Rope1_Seg07]
29 139.999985 0.000060 0.000000 0.006608 0.001659 0.001660 139.999985
30 139.999985 0.000060 0.000000 0.852308 -0.171439 0.000381 139.999985
[Rope1_Seg09]
29 121.602913 0.000119 -0.000089 57.568462 -1.360173 0.846031 121.602913
30 121.602913 0.000119 -0.000089 57.568462 -1.360173 0.846031 121.602913
[L_mid_hand01]
29 103.859421 1.038730 8.195221 123.754395 -63.500862 -31.414274 104.187431
30 103.859421 1.038730 8.195221 118.586250 -58.785614 -25.516735 104.187431
[L_mid_hand02]
29 105.572853 -4.139662 -10.864139 -164.309601 42.223709 -66.723450 106.211075
30 105.572853 -4.139662 -10.864139 -159.699844 40.522476 -59.749573 106.211075
[L_mid_hand03]
29 104.641464 17.579376 -3.913581 -7.618882 17.202652 69.572090 106.179977
30 104.641464 17.579376 -3.913581 -9.259439 16.391668 63.887253 106.179977
[null_rope02_connect]
29 328.732849 0.000179 -0.000119 167.614105 50.119877 -93.534828 328.732849
30 328.732849 0.000179 -0.000119 174.813660 57.092560 -85.326469 328.732849
[Rope2_Seg01]
29 0.000095 0.000153 0.000067 -57.697411 17.776871 -32.890419 0.000192
30 0.000095 0.000153 0.000069 -58.286102 17.812145 -32.047089 0.000193
[Rope2_Seg02]
29 139.999741 -0.000060 -0.000119 36.802666 -2.849053 -6.349576 139.999756
30 139.999741 -0.000060 -0.000119 51.525990 1.043162 -8.383726 139.999756
[Rope2_Seg03]
29 140.000107 0.000030 0.000000 26.523653 -15.281729 -5.808424 140.000107
30 140.000107 0.000030 0.000000 34.599838 -13.578262 -7.717729 140.000107
[Rope2_Seg04]
29 139.999802 0.000000 -0.000060 23.100792 -28.074966 -10.261370 139.999802
30 139.999802 0.000000 -0.000060 27.172348 -21.886349 -11.626139 139.999802
[Rope2_Seg05]
29 139.999985 -0.000060 0.000119 70.167076 -36.602856 -104.968102 139.999985
30 139.999985 -0.000060 0.000119 41.727844 -30.842253 -41.512005 139.999985
[Rope2_Seg06]
29 139.999893 -0.000030 -0.000119 -4.334644 -14.435685 -6.212706 139.999893
30 139.999893 -0.000030 -0.000119 2.590389 -17.007633 -3.792495 139.999893
[Rope2_Seg07]
29 139.999893 0.000060 -0.000060 -0.956450 -1.881312 -0.996688 139.999893
30 139.999893 0.000060 -0.000060 0.123680 -6.341035 -1.129597 139.999893
[Rope2_Seg09]
29 121.338966 0.000089 -0.000060 33.793236 -1.359788 -0.847141 121.338966
30 121.338966 0.000089 -0.000060 33.793236 -1.359788 -0.847141 121.338966
[R_mid_hand01]
29 104.680779 11.144459 -10.335981 -44.145947 19.560663 21.759447 105.778534
30 104.680779 11.144459 -10.335981 -44.145947 19.560663 21.759447 105.778534
[R_mid_hand02]
29 104.070427 2.443552 8.231699 74.186195 -24.483597 7.232481 104.424065
30 104.070427 2.443552 8.231699 74.186180 -24.483591 7.232481 104.424065
[R_mid_hand03]
29 106.028137 -11.221827 -5.996406 -166.520828 8.347037 -28.494413 106.788818
30 106.028137 -11.221827 -5.996406 -166.520828 8.347036 -28.494411 106.788818
[spine02]
29 129.756927 0.001550 0.000119 0.303917 -4.050218 -12.161338 129.756927
30 129.756927 0.001550 0.000119 0.312543 -4.049410 -12.266157 129.756927
[spine03]
29 78.614044 0.081501 -4.899008 1.998062 3.782944 17.977169 78.766579
30 78.614044 0.081496 -4.899007 1.973286 3.794703 17.606075 78.766579
[pelvis]
29 169.435242 0.051022 0.000000 -0.060635 -0.180168 14.195910 169.435257
30 169.435242 0.051022 0.000000 -0.060559 -0.180194 14.147732 169.435257
[null_rope03_connect]
29 -1.257226 -2.466202 137.391083 -39.685104 -77.279488 100.682457 137.418976
30 -1.257226 -2.466202 137.391083 -31.239759 -81.474106 92.101418 137.418976
[null_rope04_connect]
29 -1.259640 -2.480268 -137.844437 -39.685104 -77.279488 100.682457 137.872513
30 -1.259640 -2.480268 -137.844437 -31.239759 -81.474106 92.101418 137.872513
[Rope3_Seg01]
29 0.000000 0.000000 0.000000 -132.855469 10.498979 -91.780998 0.000000
30 0.000000 0.000000 0.000000 -134.371246 18.186979 -88.635086 0.000000
[Rope3_Seg02]
29 139.999924 -0.000119 0.000060 -0.457129 -0.150498 2.782026 139.999924
30 139.999924 -0.000119 0.000060 -0.144393 -0.610992 0.492054 139.999924
[Rope3_Seg03]
29 139.999924 -0.000119 0.000119 -0.782099 -0.379685 3.575710 139.999924
30 139.999924 -0.000119 0.000119 -0.215157 -0.823203 0.576917 139.999924
[Rope3_Seg04]
29 139.999924 0.000119 0.000000 -1.905391 -4.851721 1.542895 139.999924
30 139.999924 0.000119 0.000000 -0.349804 -5.838127 -4.086705 139.999924
[Rope3_Seg05]
29 139.999924 -0.000238 0.000060 0.244324 8.336939 16.209251 139.999924
30 139.999924 -0.000238 0.000060 0.610073 5.914468 9.065691 139.999924
[Rope3_Seg06]
29 139.999893 -0.000119 -0.000060 2.137489 8.410040 11.520745 139.999893
30 139.999893 -0.000119 -0.000060 3.747757 12.862817 15.365666 139.999893
[Rope3_Seg07]
29 139.999771 0.000060 -0.000119 0.514012 3.064692 4.711910 139.999771
30 139.999771 0.000060 -0.000119 1.738162 5.080414 5.839362 139.999771
[Rope3_Seg08]
29 139.999985 -0.000060 0.000000 0.490239 1.702342 2.581227 139.999985
30 139.999985 -0.000060 0.000000 1.326041 2.845643 3.107391 139.999985
[Rope3_Seg09]
29 90.185997 -0.000179 -0.000060 19.685196 -1.362318 -0.847113 90.185997
30 90.185997 -0.000179 -0.000060 16.852352 -1.360695 -0.847598 90.185997
[R_rear_hand01]
29 103.366196 -6.073594 -10.757982 -160.019470 14.769054 -24.439312 104.101845
30 103.366196 -6.073594 -10.757982 -160.019470 14.769056 -24.439318 104.101845
[R_rear_hand02]
29 100.509819 12.039542 -7.992327 -35.779446 15.980558 23.927948 101.543350
30 100.509819 12.039542 -7.992327 -35.779446 15.980558 23.927948 101.543350
[R_rear_hand03]
29 101.539970 5.215704 5.435467 83.711807 -25.208057 6.550418 101.819031
30 101.539970 5.215704 5.435467 83.711815 -25.208061 6.550417 101.819031
[Rope4_Seg01]
29 -0.000011 -0.000010 -0.000153 38.947063 28.083366 -122.166214 0.000153
30 -0.000010 -0.000007 -0.000153 39.159237 24.718172 -122.811584 0.000153
[Rope4_Seg02]
29 139.999985 0.000060 0.000119 -0.285401 2.462062 -1.157095 139.999985
30 139.999985 0.000060 0.000119 -0.075517 4.732059 1.127145 139.999985
[Rope4_Seg03]
29 139.999924 0.000000 -0.000238 -0.187526 3.284928 -0.731032 139.999924
30 139.999924 0.000000 -0.000238 0.062202 5.829889 1.480600 139.999924
[Rope4_Seg04]
29 139.999985 0.000000 0.000119 0.742317 9.011905 10.318592 139.999985
30 139.999985 0.000000 0.000119 0.992988 14.615490 12.414040 139.999985
[Rope4_Seg05]
29 139.999802 -0.000060 -0.000119 1.206257 -3.692158 -20.312975 139.999802
30 139.999802 -0.000060 -0.000119 2.048586 1.845402 -6.404900 139.999802
[Rope4_Seg06]
29 139.999924 0.000000 0.000060 -6.345896 -12.898255 -39.739117 139.999924
30 139.999924 0.000000 0.000060 6.507761 -19.789261 -37.164150 139.999924
[Rope4_Seg07]
29 139.999802 0.000000 0.000000 -7.430351 -1.398525 -12.153472 139.999802
30 139.999802 0.000000 0.000000 -3.713550 -8.474668 -15.361664 139.999802
[Rope4_Seg08]
29 139.999924 0.000000 0.000119 -5.576464 0.127345 -5.354163 139.999924
30 139.999924 0.000000 0.000119 -4.458618 -2.572842 -6.153971 139.999924
[Rope4_Seg09]
29 90.185791 0.000060 0.000060 165.885803 2.226980 0.852433 90.185791
30 90.185791 0.000060 0.000060 164.603790 2.229224 0.848394 90.185791
[L_rear_hand01]
29 101.696655 -8.392275 -7.654577 -35.772339 -16.007236 156.036102 102.329041
30 101.696655 -8.392275 -7.654577 -36.052517 -15.278037 157.077148 102.329041
[L_rear_hand02]
29 102.726799 -1.568258 5.773216 83.710411 25.254463 173.442535 102.900848
30 102.726799 -1.568258 5.773216 83.769310 24.020374 173.595673 102.900848
[L_rear_hand03]
29 104.552910 9.721220 -10.420293 -160.032089 -14.785618 -155.515137 105.519653
30 104.552910 9.721220 -10.420293 -159.727219 -14.358829 -156.721298 105.519653
